<svg preserveAspectRatio="none" overflow="visible" style="display: block;" width="12" height="11.5634" viewBox="0 0 12 11.5634" fill="none" xmlns="http://www.w3.org/2000/svg">
<path id="Vector 139 (Stroke)" fill-rule="evenodd" clip-rule="evenodd" d="M0.170067 0.163879C0.396823 -0.0546264 0.764467 -0.0546264 0.991223 0.163879L6 4.99041L11.0088 0.163879C11.2355 -0.0546264 11.6032 -0.0546264 11.8299 0.163879C12.0567 0.382385 12.0567 0.736652 11.8299 0.955158L6.82115 5.78169L11.8299 10.6082C12.0567 10.8267 12.0567 11.181 11.8299 11.3995C11.6032 11.618 11.2355 11.618 11.0088 11.3995L6 6.57297L0.991223 11.3995C0.764467 11.618 0.396823 11.618 0.170067 11.3995C-0.056689 11.181 -0.056689 10.8267 0.170067 10.6082L5.17884 5.78169L0.170067 0.955158C-0.056689 0.736652 -0.056689 0.382385 0.170067 0.163879Z" fill="#D28A4C"/>
</svg>
